<mxfile host="app.diagrams.net" modified="2023-12-21T10:22:11.350Z" agent="Mozilla/5.0 (Windows NT 10.0; Win64; x64) AppleWebKit/537.36 (KHTML, like Gecko) Chrome/120.0.0.0 Safari/537.36" etag="8zDAzfYCWEcqJSQdjTyB" version="22.1.11" type="github">
  <diagram name="第 1 页" id="FGEhZQvF2Vw33ykDehZV">
    <mxGraphModel dx="2629" dy="828" grid="1" gridSize="10" guides="1" tooltips="1" connect="1" arrows="1" fold="1" page="1" pageScale="1" pageWidth="827" pageHeight="1169" math="0" shadow="0">
      <root>
        <mxCell id="0" />
        <mxCell id="1" parent="0" />
        <mxCell id="xDiJf6gSrYjaOdfdZUeh-2" style="edgeStyle=orthogonalEdgeStyle;rounded=0;orthogonalLoop=1;jettySize=auto;html=1;exitX=0.5;exitY=1;exitDx=0;exitDy=0;" parent="1" source="xDiJf6gSrYjaOdfdZUeh-1" edge="1">
          <mxGeometry relative="1" as="geometry">
            <mxPoint x="230.09523809523807" y="130" as="targetPoint" />
          </mxGeometry>
        </mxCell>
        <mxCell id="xDiJf6gSrYjaOdfdZUeh-7" style="edgeStyle=orthogonalEdgeStyle;rounded=0;orthogonalLoop=1;jettySize=auto;html=1;entryX=0.5;entryY=0;entryDx=0;entryDy=0;" parent="1" source="xDiJf6gSrYjaOdfdZUeh-1" target="xDiJf6gSrYjaOdfdZUeh-5" edge="1">
          <mxGeometry relative="1" as="geometry" />
        </mxCell>
        <mxCell id="xDiJf6gSrYjaOdfdZUeh-8" style="edgeStyle=orthogonalEdgeStyle;rounded=0;orthogonalLoop=1;jettySize=auto;html=1;entryX=0.5;entryY=0;entryDx=0;entryDy=0;" parent="1" source="xDiJf6gSrYjaOdfdZUeh-1" target="xDiJf6gSrYjaOdfdZUeh-6" edge="1">
          <mxGeometry relative="1" as="geometry" />
        </mxCell>
        <mxCell id="xDiJf6gSrYjaOdfdZUeh-1" value="评分管理" style="rounded=1;whiteSpace=wrap;html=1;" parent="1" vertex="1">
          <mxGeometry x="200" y="60" width="60" height="30" as="geometry" />
        </mxCell>
        <mxCell id="xDiJf6gSrYjaOdfdZUeh-9" style="edgeStyle=orthogonalEdgeStyle;rounded=0;orthogonalLoop=1;jettySize=auto;html=1;exitX=0.5;exitY=1;exitDx=0;exitDy=0;" parent="1" source="xDiJf6gSrYjaOdfdZUeh-4" edge="1">
          <mxGeometry relative="1" as="geometry">
            <mxPoint x="230.09523809523807" y="200" as="targetPoint" />
          </mxGeometry>
        </mxCell>
        <mxCell id="xDiJf6gSrYjaOdfdZUeh-4" value="正评" style="rounded=1;whiteSpace=wrap;html=1;" parent="1" vertex="1">
          <mxGeometry x="200" y="130" width="60" height="30" as="geometry" />
        </mxCell>
        <mxCell id="xDiJf6gSrYjaOdfdZUeh-40" style="edgeStyle=orthogonalEdgeStyle;rounded=0;orthogonalLoop=1;jettySize=auto;html=1;entryX=-0.071;entryY=0.51;entryDx=0;entryDy=0;entryPerimeter=0;" parent="1" source="xDiJf6gSrYjaOdfdZUeh-5" target="xDiJf6gSrYjaOdfdZUeh-42" edge="1">
          <mxGeometry relative="1" as="geometry">
            <mxPoint x="20" y="145" as="targetPoint" />
          </mxGeometry>
        </mxCell>
        <mxCell id="xDiJf6gSrYjaOdfdZUeh-72" style="edgeStyle=orthogonalEdgeStyle;rounded=0;orthogonalLoop=1;jettySize=auto;html=1;exitX=0.5;exitY=1;exitDx=0;exitDy=0;entryX=0;entryY=0.5;entryDx=0;entryDy=0;" parent="1" source="xDiJf6gSrYjaOdfdZUeh-5" target="xDiJf6gSrYjaOdfdZUeh-22" edge="1">
          <mxGeometry relative="1" as="geometry" />
        </mxCell>
        <mxCell id="xDiJf6gSrYjaOdfdZUeh-5" value="采样" style="rounded=1;whiteSpace=wrap;html=1;" parent="1" vertex="1">
          <mxGeometry x="-280" y="130" width="60" height="30" as="geometry" />
        </mxCell>
        <mxCell id="xDiJf6gSrYjaOdfdZUeh-6" value="试评" style="rounded=1;whiteSpace=wrap;html=1;" parent="1" vertex="1">
          <mxGeometry x="300" y="130" width="60" height="30" as="geometry" />
        </mxCell>
        <mxCell id="xDiJf6gSrYjaOdfdZUeh-11" style="edgeStyle=orthogonalEdgeStyle;rounded=0;orthogonalLoop=1;jettySize=auto;html=1;entryX=0;entryY=0.5;entryDx=0;entryDy=0;" parent="1" source="xDiJf6gSrYjaOdfdZUeh-10" target="xDiJf6gSrYjaOdfdZUeh-13" edge="1">
          <mxGeometry relative="1" as="geometry">
            <mxPoint x="320" y="220" as="targetPoint" />
          </mxGeometry>
        </mxCell>
        <mxCell id="xDiJf6gSrYjaOdfdZUeh-14" value="评分不一致/非问题卷" style="edgeLabel;html=1;align=center;verticalAlign=middle;resizable=0;points=[];" parent="xDiJf6gSrYjaOdfdZUeh-11" vertex="1" connectable="0">
          <mxGeometry x="-0.213" y="1" relative="1" as="geometry">
            <mxPoint as="offset" />
          </mxGeometry>
        </mxCell>
        <mxCell id="xDiJf6gSrYjaOdfdZUeh-23" style="edgeStyle=orthogonalEdgeStyle;rounded=0;orthogonalLoop=1;jettySize=auto;html=1;exitX=0.5;exitY=1;exitDx=0;exitDy=0;entryX=0.5;entryY=0;entryDx=0;entryDy=0;" parent="1" source="xDiJf6gSrYjaOdfdZUeh-10" target="xDiJf6gSrYjaOdfdZUeh-22" edge="1">
          <mxGeometry relative="1" as="geometry" />
        </mxCell>
        <mxCell id="xDiJf6gSrYjaOdfdZUeh-50" value="一致并且非问题卷" style="edgeLabel;html=1;align=center;verticalAlign=middle;resizable=0;points=[];" parent="xDiJf6gSrYjaOdfdZUeh-23" vertex="1" connectable="0">
          <mxGeometry x="-0.1796" y="-1" relative="1" as="geometry">
            <mxPoint as="offset" />
          </mxGeometry>
        </mxCell>
        <mxCell id="xDiJf6gSrYjaOdfdZUeh-58" style="edgeStyle=orthogonalEdgeStyle;rounded=0;orthogonalLoop=1;jettySize=auto;html=1;entryX=1;entryY=0.5;entryDx=0;entryDy=0;" parent="1" source="xDiJf6gSrYjaOdfdZUeh-10" target="xDiJf6gSrYjaOdfdZUeh-55" edge="1">
          <mxGeometry relative="1" as="geometry" />
        </mxCell>
        <mxCell id="xDiJf6gSrYjaOdfdZUeh-10" value="评分" style="rhombus;whiteSpace=wrap;html=1;" parent="1" vertex="1">
          <mxGeometry x="207.5" y="200" width="45" height="40" as="geometry" />
        </mxCell>
        <mxCell id="xDiJf6gSrYjaOdfdZUeh-15" style="edgeStyle=orthogonalEdgeStyle;rounded=0;orthogonalLoop=1;jettySize=auto;html=1;exitX=0.5;exitY=1;exitDx=0;exitDy=0;entryX=1;entryY=0.5;entryDx=0;entryDy=0;" parent="1" source="xDiJf6gSrYjaOdfdZUeh-13" target="xDiJf6gSrYjaOdfdZUeh-22" edge="1">
          <mxGeometry relative="1" as="geometry">
            <mxPoint x="350.0952380952381" y="300" as="targetPoint" />
          </mxGeometry>
        </mxCell>
        <mxCell id="xDiJf6gSrYjaOdfdZUeh-21" value="仲裁得分" style="edgeLabel;html=1;align=center;verticalAlign=middle;resizable=0;points=[];" parent="xDiJf6gSrYjaOdfdZUeh-15" vertex="1" connectable="0">
          <mxGeometry x="-0.3128" relative="1" as="geometry">
            <mxPoint as="offset" />
          </mxGeometry>
        </mxCell>
        <mxCell id="xDiJf6gSrYjaOdfdZUeh-20" style="edgeStyle=orthogonalEdgeStyle;rounded=0;orthogonalLoop=1;jettySize=auto;html=1;exitX=1;exitY=0.5;exitDx=0;exitDy=0;entryX=1;entryY=0.5;entryDx=0;entryDy=0;" parent="1" source="xDiJf6gSrYjaOdfdZUeh-13" target="xDiJf6gSrYjaOdfdZUeh-36" edge="1">
          <mxGeometry relative="1" as="geometry">
            <mxPoint x="663" y="400" as="targetPoint" />
          </mxGeometry>
        </mxCell>
        <mxCell id="xDiJf6gSrYjaOdfdZUeh-30" value="提交问题卷" style="edgeLabel;html=1;align=center;verticalAlign=middle;resizable=0;points=[];" parent="xDiJf6gSrYjaOdfdZUeh-20" vertex="1" connectable="0">
          <mxGeometry x="0.0553" y="-1" relative="1" as="geometry">
            <mxPoint as="offset" />
          </mxGeometry>
        </mxCell>
        <mxCell id="xDiJf6gSrYjaOdfdZUeh-13" value="仲裁" style="rhombus;whiteSpace=wrap;html=1;" parent="1" vertex="1">
          <mxGeometry x="390" y="200" width="40" height="37.5" as="geometry" />
        </mxCell>
        <mxCell id="xDiJf6gSrYjaOdfdZUeh-32" style="edgeStyle=orthogonalEdgeStyle;rounded=0;orthogonalLoop=1;jettySize=auto;html=1;entryX=0.5;entryY=0;entryDx=0;entryDy=0;exitX=0;exitY=0.75;exitDx=0;exitDy=0;" parent="1" source="xDiJf6gSrYjaOdfdZUeh-22" target="xDiJf6gSrYjaOdfdZUeh-25" edge="1">
          <mxGeometry relative="1" as="geometry" />
        </mxCell>
        <mxCell id="xDiJf6gSrYjaOdfdZUeh-51" value="评分结束" style="edgeLabel;html=1;align=center;verticalAlign=middle;resizable=0;points=[];" parent="xDiJf6gSrYjaOdfdZUeh-32" vertex="1" connectable="0">
          <mxGeometry x="0.1706" y="-1" relative="1" as="geometry">
            <mxPoint as="offset" />
          </mxGeometry>
        </mxCell>
        <mxCell id="xDiJf6gSrYjaOdfdZUeh-33" style="edgeStyle=orthogonalEdgeStyle;rounded=0;orthogonalLoop=1;jettySize=auto;html=1;entryX=0;entryY=0.5;entryDx=0;entryDy=0;exitX=0.5;exitY=1;exitDx=0;exitDy=0;" parent="1" source="xDiJf6gSrYjaOdfdZUeh-22" target="xDiJf6gSrYjaOdfdZUeh-31" edge="1">
          <mxGeometry relative="1" as="geometry" />
        </mxCell>
        <mxCell id="xDiJf6gSrYjaOdfdZUeh-54" value="抽查" style="edgeLabel;html=1;align=center;verticalAlign=middle;resizable=0;points=[];" parent="xDiJf6gSrYjaOdfdZUeh-33" vertex="1" connectable="0">
          <mxGeometry x="-0.0181" relative="1" as="geometry">
            <mxPoint as="offset" />
          </mxGeometry>
        </mxCell>
        <mxCell id="xDiJf6gSrYjaOdfdZUeh-22" value="已评" style="rounded=1;whiteSpace=wrap;html=1;" parent="1" vertex="1">
          <mxGeometry x="195" y="310" width="70" height="40" as="geometry" />
        </mxCell>
        <mxCell id="xDiJf6gSrYjaOdfdZUeh-25" value="确定成绩" style="ellipse;whiteSpace=wrap;html=1;aspect=fixed;" parent="1" vertex="1">
          <mxGeometry x="150" y="380" width="50" height="50" as="geometry" />
        </mxCell>
        <mxCell id="xDiJf6gSrYjaOdfdZUeh-65" style="edgeStyle=orthogonalEdgeStyle;rounded=0;orthogonalLoop=1;jettySize=auto;html=1;exitX=1;exitY=0.5;exitDx=0;exitDy=0;entryX=0.5;entryY=0;entryDx=0;entryDy=0;" parent="1" source="xDiJf6gSrYjaOdfdZUeh-31" target="xDiJf6gSrYjaOdfdZUeh-36" edge="1">
          <mxGeometry relative="1" as="geometry" />
        </mxCell>
        <mxCell id="xDiJf6gSrYjaOdfdZUeh-66" value="提交问题卷" style="edgeLabel;html=1;align=center;verticalAlign=middle;resizable=0;points=[];" parent="xDiJf6gSrYjaOdfdZUeh-65" vertex="1" connectable="0">
          <mxGeometry x="-0.4986" y="-1" relative="1" as="geometry">
            <mxPoint x="9" y="-1" as="offset" />
          </mxGeometry>
        </mxCell>
        <mxCell id="xDiJf6gSrYjaOdfdZUeh-31" value="质检抽查非采样" style="rounded=1;whiteSpace=wrap;html=1;" parent="1" vertex="1">
          <mxGeometry x="301.5" y="365" width="57" height="30" as="geometry" />
        </mxCell>
        <mxCell id="xDiJf6gSrYjaOdfdZUeh-68" style="edgeStyle=orthogonalEdgeStyle;rounded=0;orthogonalLoop=1;jettySize=auto;html=1;entryX=0.25;entryY=1;entryDx=0;entryDy=0;exitX=0.5;exitY=1;exitDx=0;exitDy=0;" parent="1" source="xDiJf6gSrYjaOdfdZUeh-36" target="xDiJf6gSrYjaOdfdZUeh-22" edge="1">
          <mxGeometry relative="1" as="geometry" />
        </mxCell>
        <mxCell id="xDiJf6gSrYjaOdfdZUeh-36" value="裁定" style="rounded=1;whiteSpace=wrap;html=1;" parent="1" vertex="1">
          <mxGeometry x="440" y="400" width="54" height="40" as="geometry" />
        </mxCell>
        <mxCell id="xDiJf6gSrYjaOdfdZUeh-46" style="edgeStyle=orthogonalEdgeStyle;rounded=0;orthogonalLoop=1;jettySize=auto;html=1;entryX=0;entryY=0.5;entryDx=0;entryDy=0;" parent="1" source="xDiJf6gSrYjaOdfdZUeh-42" target="xDiJf6gSrYjaOdfdZUeh-4" edge="1">
          <mxGeometry relative="1" as="geometry" />
        </mxCell>
        <mxCell id="xDiJf6gSrYjaOdfdZUeh-42" value="标准卷" style="rounded=1;whiteSpace=wrap;html=1;" parent="1" vertex="1">
          <mxGeometry x="50" y="126.25" width="50" height="37.5" as="geometry" />
        </mxCell>
        <mxCell id="xDiJf6gSrYjaOdfdZUeh-45" value="记录评分质量" style="rounded=1;whiteSpace=wrap;html=1;" parent="1" vertex="1">
          <mxGeometry x="40" y="270" width="85" height="30" as="geometry" />
        </mxCell>
        <mxCell id="xDiJf6gSrYjaOdfdZUeh-62" style="edgeStyle=orthogonalEdgeStyle;rounded=0;orthogonalLoop=1;jettySize=auto;html=1;entryX=1;entryY=0.5;entryDx=0;entryDy=0;exitX=0.5;exitY=0;exitDx=0;exitDy=0;" parent="1" source="xDiJf6gSrYjaOdfdZUeh-55" target="xDiJf6gSrYjaOdfdZUeh-61" edge="1">
          <mxGeometry relative="1" as="geometry">
            <Array as="points">
              <mxPoint x="145" y="190" />
              <mxPoint x="60" y="190" />
            </Array>
          </mxGeometry>
        </mxCell>
        <mxCell id="xDiJf6gSrYjaOdfdZUeh-55" value="标准卷" style="rounded=1;whiteSpace=wrap;html=1;" parent="1" vertex="1">
          <mxGeometry x="120" y="201.25" width="50" height="37.5" as="geometry" />
        </mxCell>
        <mxCell id="xDiJf6gSrYjaOdfdZUeh-59" style="edgeStyle=orthogonalEdgeStyle;rounded=0;orthogonalLoop=1;jettySize=auto;html=1;entryX=0.473;entryY=-0.106;entryDx=0;entryDy=0;entryPerimeter=0;exitX=0;exitY=0.5;exitDx=0;exitDy=0;" parent="1" source="xDiJf6gSrYjaOdfdZUeh-55" target="xDiJf6gSrYjaOdfdZUeh-45" edge="1">
          <mxGeometry relative="1" as="geometry" />
        </mxCell>
        <mxCell id="xDiJf6gSrYjaOdfdZUeh-61" value="标准卷提交成问题卷，不进裁定，记录评分质量为否定" style="rounded=1;whiteSpace=wrap;html=1;" parent="1" vertex="1">
          <mxGeometry x="-270" y="171.25" width="290" height="30" as="geometry" />
        </mxCell>
        <mxCell id="xDiJf6gSrYjaOdfdZUeh-73" style="edgeStyle=orthogonalEdgeStyle;rounded=0;orthogonalLoop=1;jettySize=auto;html=1;exitX=1;exitY=0;exitDx=0;exitDy=0;entryX=0.692;entryY=0.015;entryDx=0;entryDy=0;entryPerimeter=0;" parent="1" source="xDiJf6gSrYjaOdfdZUeh-10" target="xDiJf6gSrYjaOdfdZUeh-36" edge="1">
          <mxGeometry relative="1" as="geometry">
            <Array as="points">
              <mxPoint x="241" y="190" />
              <mxPoint x="477" y="190" />
            </Array>
          </mxGeometry>
        </mxCell>
        <mxCell id="GL5M-c0Os81harRtEAyF-1" value="提交问题卷" style="edgeLabel;html=1;align=center;verticalAlign=middle;resizable=0;points=[];" parent="xDiJf6gSrYjaOdfdZUeh-73" vertex="1" connectable="0">
          <mxGeometry x="-0.2564" y="2" relative="1" as="geometry">
            <mxPoint as="offset" />
          </mxGeometry>
        </mxCell>
      </root>
    </mxGraphModel>
  </diagram>
</mxfile>
